<?xml version="1.0" encoding="UTF-8"?>
<!DOCTYPE svg PUBLIC "-//W3C//DTD SVG 1.1//EN" "http://www.w3.org/Graphics/SVG/1.1/DTD/svg11.dtd">
<!-- Creator: CorelDRAW X7 -->
<svg xmlns="http://www.w3.org/2000/svg" xml:space="preserve" width="21.737in" height="7.567in" version="1.1" style="shape-rendering:geometricPrecision; text-rendering:geometricPrecision; image-rendering:optimizeQuality; fill-rule:evenodd; clip-rule:evenodd"
viewBox="0 0 21737 7567"
 xmlns:xlink="http://www.w3.org/1999/xlink"
 enable-background="new 0 0 2072.896 688.466">
 <defs>
  <style type="text/css">
   <![CDATA[
    .fil3 {fill:#FEFEFE}
    .fil1 {fill:#C82127}
    .fil0 {fill:#F4F4F4}
    .fil2 {fill:#F8991F}
   ]]>
  </style>
    <clipPath id="id0">
     <path d="M-340 -532l22612 0 -71 8241 -22613 0 72 -8241z"/>
    </clipPath>
 </defs>
 <g id="Layer_x0020_1">
  <metadata id="CorelCorpID_0Corel-Layer"/>
  <g id="_796786528">
   <g style="clip-path:url(#id0)">
    <image x="-412" y="-532" width="22683" height="8242" xlink:href="display-direct-border_Images\display-direct-border_ImgID1.png"/>
   </g>
  </g>
  <path class="fil0" d="M18564 5l-12121 0 -6312 0c0,0 4,6739 11,6773 49,225 249,394 489,394l9828 0c3873,0 4972,-997 6063,-2834 1646,-2770 5146,-4333 5146,-4333l-3104 0z"/>
  <g id="_126864448">
   <g>
    <path class="fil1" d="M2136 1529l363 0c102,0 166,16 208,52 53,44 71,96 71,202 0,168 -7,217 -35,261 -40,64 -114,92 -239,92l-368 0 0 -607 0 0zm340 507c68,0 105,-11 127,-37 24,-28 31,-64 31,-168 0,-106 -5,-140 -29,-167 -21,-24 -55,-34 -120,-34l-208 0 0 406 199 0z"/>
    <path class="fil1" d="M3165 1616l-124 0 0 -87 124 0 0 87zm0 520l-124 0 0 -425 124 0 0 425z"/>
    <path class="fil1" d="M3761 1827c-7,-47 -14,-51 -103,-51 -88,0 -104,8 -104,51 0,27 9,41 31,46 11,3 18,3 102,6 114,5 142,9 171,28 28,20 43,52 43,98 0,46 -17,81 -48,103 -36,24 -88,33 -195,33 -144,0 -201,-19 -221,-73 -8,-20 -9,-28 -9,-66l128 0 0 14c0,43 20,53 108,53 90,0 113,-10 113,-54 0,-43 -15,-54 -74,-55 -226,-2 -272,-23 -272,-128 0,-100 49,-127 233,-127 172,0 218,26 218,122l-121 0z"/>
    <path class="fil1" d="M4290 1711l-5 63 2 1c35,-54 73,-70 168,-70 65,0 116,13 145,38 37,32 52,79 52,176 0,170 -47,222 -198,222 -93,0 -131,-16 -159,-67l-2 0 0 244 -128 0 0 -607 125 0zm4 211c0,112 22,137 118,137 92,0 113,-24 113,-130 0,-123 -18,-144 -117,-144 -94,0 -114,24 -114,137z"/>
    <polygon class="fil1" points="5045,2136 4920,2136 4920,1529 5045,1529 "/>
    <path class="fil1" d="M5334 1834c0,-50 8,-71 29,-91 30,-28 82,-38 193,-38 178,0 231,36 231,153l0 278 -125 0 6 -58 -4 0c-27,49 -65,63 -163,63 -137,0 -188,-34 -188,-130 0,-98 52,-135 190,-135 101,0 136,11 157,50l2 0 0 -70c0,-67 -21,-83 -103,-83 -81,0 -97,10 -99,61l-126 0 0 0zm106 171c0,52 21,63 111,63 85,0 112,-14 112,-62 0,-48 -25,-61 -116,-61 -86,0 -107,12 -107,60z"/>
    <path class="fil1" d="M6359 2162c-37,128 -81,162 -206,162 -17,0 -27,0 -43,-2l0 -74c10,1 21,1 26,1 43,0 63,-13 81,-51 10,-21 15,-38 20,-62l-63 0 -169 -425 132 0 64 180 33 90 30 90 4 0 18 -74c10,-35 20,-70 29,-106l51 -180 129 0 -136 451z"/>
    <path class="fil1" d="M7035 1827c-6,-47 -13,-51 -103,-51 -88,0 -103,8 -103,51 0,27 8,41 30,46 12,3 18,3 102,6 115,5 143,9 171,28 29,20 43,52 43,98 0,46 -16,81 -47,103 -37,24 -88,33 -196,33 -143,0 -201,-19 -220,-73 -8,-20 -9,-28 -9,-66l128 0 0 14c0,43 20,53 108,53 90,0 113,-10 113,-54 0,-43 -16,-54 -74,-55 -227,-2 -272,-23 -272,-128 0,-100 49,-127 233,-127 171,0 218,26 218,122l-122 0z"/>
    <path class="fil1" d="M7884 1529l362 0c101,0 165,16 207,52 53,44 71,96 71,202 0,168 -6,217 -34,261 -41,64 -115,92 -240,92l-366 0 0 -607 0 0zm339 507c67,0 105,-11 127,-37 24,-28 30,-64 30,-168 0,-106 -5,-140 -28,-167 -21,-24 -55,-34 -121,-34l-206 0 0 406 198 0z"/>
    <path class="fil1" d="M8912 1616l-125 0 0 -87 125 0 0 87zm0 520l-125 0 0 -425 125 0 0 425z"/>
    <path class="fil1" d="M9327 1711l-8 59 3 1c34,-49 69,-67 140,-67 45,0 83,12 104,32 23,22 32,50 32,108l0 32 -117 0c1,-11 1,-13 1,-24 0,-51 -15,-67 -65,-67 -40,0 -69,15 -82,41 -6,13 -8,27 -8,59l0 251 -125 0 0 -425 125 0z"/>
    <path class="fil1" d="M10305 2000c0,109 -51,141 -228,141 -201,0 -247,-41 -247,-220 0,-173 48,-216 243,-216 138,0 195,26 220,99 9,28 12,49 12,138l-350 0 0 13c0,90 21,110 116,110 92,0 108,-9 110,-65l124 0zm-123 -138c-3,-67 -19,-80 -112,-80 -68,0 -93,8 -106,36 -5,13 -6,25 -7,60l225 0 0 -16z"/>
    <path class="fil1" d="M11026 1974l0 15c0,48 -9,80 -29,103 -32,38 -80,49 -192,49 -116,0 -169,-12 -208,-50 -31,-31 -42,-74 -42,-168 0,-88 10,-131 40,-164 33,-37 94,-54 194,-54 179,0 229,34 229,156l-122 0c0,-62 -18,-75 -106,-75 -96,0 -108,17 -108,143 0,115 16,132 118,132 89,0 102,-12 102,-87l124 0 0 0z"/>
    <path class="fil1" d="M11615 1788l-196 0 0 213c0,49 10,61 54,61 47,0 60,-14 60,-73 0,-3 0,-10 -2,-17l105 0 0 25c0,59 -6,81 -27,104 -27,29 -70,40 -148,40 -90,0 -134,-15 -155,-55 -10,-18 -12,-31 -12,-70l0 -228 -67 0 0 -77 67 0 0 -95 125 0 0 95 196 0 0 77z"/>
   </g>
   <path class="fil2" d="M6594 3143l350 0c332,0 608,47 829,141 91,39 185,89 245,145 35,34 132,25 167,-18 81,-99 165,-205 258,-299l0 0c22,-18 35,-43 35,-71 0,-33 -19,-62 -49,-80 -12,-7 -26,-12 -41,-16 -78,-29 -158,-57 -243,-81 -346,-98 -746,-147 -1202,-147l-856 0c-133,0 -250,21 -350,63 -18,8 -34,16 -49,24 -137,57 -265,148 -399,291 -198,213 -599,748 -959,886 -223,95 -499,142 -828,142 -80,0 -196,0 -349,-2l0 -989 349 0c332,0 609,48 831,142 91,39 187,97 248,158 37,37 135,31 174,-15 3,-4 6,-7 8,-11 86,-102 176,-214 255,-304 5,-6 11,-12 16,-18 10,-14 17,-31 17,-49 0,-33 -20,-62 -50,-80 -13,-7 -26,-12 -41,-15 -81,-32 -165,-61 -253,-86 -348,-98 -750,-147 -1206,-147l-855 0c-134,0 -251,21 -350,63 -99,42 -149,92 -149,149l0 1418c0,62 47,112 141,152 93,40 213,60 358,60l855 0c434,0 819,-45 1154,-134 16,-4 33,-8 48,-12 118,-33 292,-113 405,-190 197,-139 336,-268 478,-413 1,0 1,-1 2,-2l0 0c130,-150 247,-288 373,-399 175,-154 367,-255 633,-256zm-1934 312c-8,0 -16,-1 -24,-2 8,1 16,2 24,2zm-35 -5c-4,-1 -8,-2 -12,-3 4,1 8,2 12,3zm-25 -9c-2,-1 -5,-2 -7,-3 2,1 5,2 7,3zm-21 -12c-1,-1 -2,-2 -4,-3 2,1 3,2 4,3zm-16 -15c-1,-1 -2,-2 -2,-3 0,1 1,2 2,3zm-11 -17c-1,-1 -2,-2 -2,-3 0,1 1,2 2,3zm-8 -17c0,-1 -1,-3 -1,-4 0,1 1,3 1,4z"/>
   <path class="fil1" d="M11072 2972c-269,-114 -580,-191 -930,-231 -66,-8 -133,-14 -202,-19 -384,-13 -653,-2 -908,159 -3,3 -7,5 -11,7 -8,5 -16,11 -24,17 -12,7 -24,16 -35,25 0,0 0,0 -1,0 -65,47 -130,104 -196,175 -160,173 -453,555 -749,768 -2,1 -4,3 -5,4 -69,48 -137,88 -204,114 -223,95 -498,143 -826,143 -80,0 -197,-1 -349,-3l-1 -708c0,-45 -44,-82 -98,-82 -3,0 -6,1 -8,1 -5,1 -9,1 -14,1 -114,16 -206,54 -290,109 -178,125 -319,329 -549,552 -6,6 -11,11 -16,16 -9,11 -14,24 -15,38l0 279c0,62 47,112 140,152 94,40 214,60 359,60l855 0c54,0 108,0 160,-2 369,-10 699,-54 992,-132 15,-4 31,-8 47,-12 16,-5 32,-11 48,-15 114,-39 258,-108 357,-175 196,-139 336,-268 478,-413 1,0 1,-1 2,-2l0 0c129,-150 247,-288 372,-399 174,-152 363,-252 624,-256 278,2 548,128 605,370 6,41 11,75 11,115 0,20 -3,39 -7,58 -27,115 -136,213 -328,295 -223,95 -499,142 -827,142 -74,0 -178,0 -312,-2 -3,0 -6,0 -9,0 -18,1 -35,5 -49,13 -6,3 -11,6 -16,10 -132,86 -282,172 -446,249 -6,3 -12,6 -18,8 -26,15 -43,40 -43,67 0,44 43,80 96,81l796 0c612,0 1127,-88 1544,-265 417,-177 626,-396 626,-656 0,-260 -209,-479 -626,-656zm-2854 735c61,-57 122,-118 179,-179 -57,61 -118,122 -179,179z"/>
   <g>
    <path class="fil1" d="M2314 5935l-26 68 -152 0 164 -393 222 0 166 393 -149 0 -29 -68 -196 0zm99 -247l-67 171 136 0 -69 -171z"/>
    <path class="fil1" d="M3837 5610l0 248c0,5 0,8 -3,41 -4,40 -18,61 -53,81 -35,19 -76,25 -162,25 -109,0 -153,-4 -190,-18 -42,-17 -60,-39 -65,-81 -2,-12 -2,-18 -2,-40l0 -256 147 0 0 256c0,42 15,49 99,49 70,0 83,-9 83,-54l0 -251 146 0z"/>
    <path class="fil1" d="M4869 5732l0 -8c0,-29 -15,-37 -77,-37 -72,0 -89,7 -89,38 0,21 9,31 35,34 5,1 5,1 94,5 85,4 117,9 146,23 35,16 46,40 46,91 0,53 -10,80 -38,98 -36,22 -81,29 -183,29 -159,0 -207,-11 -233,-52 -11,-18 -14,-35 -14,-78l139 0 0 8c0,19 7,29 20,35 15,5 17,5 87,5 47,0 54,-1 68,-12 7,-5 10,-14 10,-28 0,-19 -8,-28 -28,-32 -10,-2 -10,-2 -92,-6 -91,-5 -120,-9 -148,-20 -39,-16 -55,-45 -55,-99 0,-97 43,-119 236,-119 96,0 139,6 169,22 30,16 47,45 47,83 0,4 0,11 -1,20l-139 0z"/>
    <polygon class="fil1" points="5989,6003 5843,6003 5843,5700 5704,5700 5704,5610 6137,5610 6137,5700 5989,5700 "/>
    <path class="fil1" d="M6835 5610l276 0c63,0 99,4 125,14 49,18 69,48 69,105 0,88 -16,106 -103,121l0 4c68,2 99,27 99,77l0 72 -149 0 0 -53c0,-38 -16,-52 -62,-52l-109 0 0 105 -146 0 0 -393zm263 199c49,0 57,-9 57,-63 0,-38 -11,-46 -65,-46l-109 0 0 109 117 0z"/>
    <path class="fil1" d="M8152 5935l-26 68 -152 0 163 -393 222 0 167 393 -149 0 -29 -68 -196 0zm98 -247l-67 171 136 0 -69 -171z"/>
    <polygon class="fil1" points="9358,5912 9587,5912 9587,6003 9211,6003 9211,5610 9358,5610 9358,5912 "/>
    <polygon class="fil1" points="10432,6003 10285,6003 10285,5610 10432,5610 "/>
    <path class="fil1" d="M11296 5935l-26 68 -153 0 164 -393 222 0 167 393 -150 0 -28 -68 -196 0zm98 -247l-67 171 136 0 -69 -171z"/>
   </g>
   <rect class="fil2" x="2112" y="5058" width="9582" height="109"/>
  </g>
  <rect class="fil3" x="-1602" y="-1545" width="26878" height="1548"/>
 </g>
</svg>
