<?xml version="1.0" encoding="utf-8"?>
<!-- Generator: Adobe Illustrator 15.0.0, SVG Export Plug-In . SVG Version: 6.00 Build 0)  -->
<!DOCTYPE svg PUBLIC "-//W3C//DTD SVG 1.1//EN" "http://www.w3.org/Graphics/SVG/1.1/DTD/svg11.dtd">
<svg version="1.1" id="Layer_1" xmlns="http://www.w3.org/2000/svg" xmlns:xlink="http://www.w3.org/1999/xlink" x="0px" y="0px"
	 width="198px" height="48px" viewBox="0 0 198 48" enable-background="new 0 0 198 48" xml:space="preserve">
<path fill="#FFFFFF" d="M65.246,30.729c0,0,2.078,2.148,5.288,2.148c1.534,0,3.063-0.799,3.063-2.297
	c0-3.391-9.482-2.699-9.482-8.715c0-3.355,2.989-5.251,6.675-5.251c4.047,0,5.945,2.041,5.945,2.041l-1.422,2.664
	c0,0-1.642-1.642-4.561-1.642c-1.531,0-3.027,0.654-3.027,2.262c0,3.318,9.484,2.587,9.484,8.642c0,3.066-2.626,5.364-6.676,5.364
	c-4.521,0-7.003-2.699-7.003-2.699L65.246,30.729z"/>
<path fill="#FFFFFF" d="M79.325,9.754h3.539v20.097c0,2.228,0.873,2.625,1.97,2.625c0.327,0,0.62-0.035,0.62-0.035v3.139
	c0,0-0.548,0.073-1.166,0.073c-2.008,0-4.962-0.547-4.962-5.183V9.754z"/>
<path fill="#FFFFFF" d="M95.336,16.614c5.215,0,7.99,3.866,7.99,8.643c0,0.475-0.109,1.531-0.109,1.531h-13.46
	c0.183,4.05,3.062,6.09,6.348,6.09c3.172,0,5.471-2.148,5.471-2.148l1.459,2.59c0,0-2.737,2.626-7.148,2.626
	c-5.801,0-9.777-4.197-9.777-9.668C86.109,20.406,90.084,16.614,95.336,16.614z M99.713,24.128c-0.11-3.176-2.078-4.709-4.448-4.709
	c-2.699,0-4.888,1.683-5.399,4.709H99.713z"/>
<path fill="#FFFFFF" d="M113.756,16.614c5.217,0,7.988,3.866,7.988,8.643c0,0.475-0.109,1.531-0.109,1.531h-13.459
	c0.183,4.05,3.064,6.09,6.347,6.09c3.173,0,5.47-2.148,5.47-2.148l1.459,2.59c0,0-2.734,2.626-7.146,2.626
	c-5.803,0-9.776-4.197-9.776-9.668C104.528,20.406,108.502,16.614,113.756,16.614z M118.133,24.128
	c-0.108-3.176-2.076-4.709-4.449-4.709c-2.7,0-4.888,1.683-5.399,4.709H118.133z"/>
<path fill="#FFFFFF" d="M124.227,17.052h3.245v1.567c0,0.729-0.075,1.351-0.075,1.351h0.075c0,0,1.568-3.355,6.199-3.355
	c4.961,0,8.098,3.937,8.098,9.663c0,5.873-3.537,9.668-8.351,9.668c-4.05,0-5.654-3.028-5.654-3.028h-0.074
	c0,0,0.074,0.657,0.074,1.605V42.8h-3.537V17.052z M132.868,32.917c2.919,0,5.325-2.406,5.325-6.602
	c0-4.014-2.149-6.604-5.215-6.604c-2.772,0-5.325,1.935-5.325,6.64C127.653,29.633,129.477,32.917,132.868,32.917z"/>
<path fill="#2AC4F3" d="M144.287,9.754h3.534v8.428c0,0.909-0.071,1.568-0.071,1.568h0.071c0,0,1.568-3.137,5.91-3.137
	c4.959,0,8.096,3.937,8.096,9.663c0,5.873-3.535,9.668-8.389,9.668c-4.119,0-5.797-3.176-5.797-3.176h-0.073
	c0,0,0.073,0.585,0.073,1.39v1.35h-3.354V9.754z M152.928,32.917c2.919,0,5.325-2.406,5.325-6.602c0-4.014-2.148-6.604-5.217-6.604
	c-2.769,0-5.325,1.935-5.325,6.64C147.711,29.633,149.428,32.917,152.928,32.917z"/>
<path fill="#2AC4F3" d="M164.09,17.052h3.539v11.012c0,2.557,0.51,4.598,3.462,4.598c3.759,0,5.982-3.32,5.982-6.966v-8.644h3.54
	v18.457h-3.43v-2.447c0-0.764,0.073-1.349,0.073-1.349h-0.073c-0.766,1.826-3.172,4.232-6.786,4.232
	c-4.154,0-6.308-2.188-6.308-7.077V17.052z"/>
<path fill="#2AC4F3" d="M184.552,30.729c0,0,2.08,2.148,5.287,2.148c1.533,0,3.066-0.799,3.066-2.297
	c0-3.391-9.484-2.699-9.484-8.715c0-3.355,2.992-5.251,6.675-5.251c4.051,0,5.946,2.041,5.946,2.041l-1.424,2.664
	c0,0-1.642-1.642-4.557-1.642c-1.532,0-3.027,0.654-3.027,2.262c0,3.318,9.48,2.587,9.48,8.642c0,3.066-2.626,5.364-6.676,5.364
	c-4.522,0-7.004-2.699-7.004-2.699L184.552,30.729z"/>
<g>
	<path fill="#2AC4F3" d="M28.505,31.47h13.046c1.915,0,3.409-1.518,3.409-3.391v-14.11c0-1.869-1.494-3.39-3.409-3.39H28.505V31.47z
		 M41.551,12.405c0.909,0,1.581,0.701,1.581,1.564v14.11c0,0.862-0.671,1.566-1.581,1.566H30.334v-7.19
		c0.973,1.045,2.211,1.845,3.642,2.329c0.986,0.33,2.012,0.496,3.043,0.496c1.399,0,2.806-0.302,4.134-0.902l-0.538-1.191
		c-2.006,0.906-4.217,1.034-6.224,0.359c-1.759-0.594-3.179-1.749-4.058-3.277v-7.865H41.551z"/>
	<path fill="#2AC4F3" d="M14.285,31.47h12.913V10.579H14.285c-1.916,0-3.541,1.521-3.541,3.39v14.11
		C10.744,29.952,12.369,31.47,14.285,31.47z M12.572,13.969c0-0.863,0.805-1.564,1.713-1.564h11.088v7.818
		c-0.879,1.556-2.306,2.723-4.085,3.324c-2.004,0.675-4.217,0.547-6.223-0.359l-0.537,1.191c1.328,0.6,2.734,0.902,4.133,0.902
		c1.031,0,2.058-0.166,3.045-0.496c1.443-0.488,2.689-1.295,3.667-2.353v7.214H14.285c-0.908,0-1.713-0.704-1.713-1.566V13.969z"/>
	<path fill="#2AC4F3" d="M53.138,10.056h-0.423c-0.821,0-1.486,0.663-1.486,1.486v0.496c-0.475-0.305-1.004-0.526-1.566-0.667v-4.85
		c0-3.386-2.69-6.128-6.008-6.128H12.311c-3.316,0-6.006,2.743-6.006,6.128v4.788c-0.569,0.114-1.095,0.327-1.566,0.609v-0.375
		c0-0.823-0.668-1.486-1.487-1.486H2.828c-0.821,0-1.487,0.663-1.487,1.486v9.823c0,0.825,0.666,1.487,1.487,1.487h0.423
		c0.818,0,1.487-0.663,1.487-1.487v-6.97c0.378-0.55,0.92-0.968,1.566-1.19v23.891c0,1.561,0.571,2.984,1.513,4.065l-0.924,4.225
		c0,1.765,1.65,2.279,3.566,2.279h0.743c1.916,0,2.918-0.262,3.527-2.279l0.604-2.16h25.429l0.606,2.16
		c0.612,2.018,1.61,2.279,3.526,2.279h0.745c1.915,0,3.566-0.515,3.566-2.279l-0.953-4.35c0.878-1.064,1.409-2.438,1.409-3.94V13.29
		c0.639,0.261,1.186,0.707,1.566,1.264v6.811c0,0.825,0.665,1.487,1.486,1.487h0.423c0.82,0,1.486-0.663,1.486-1.487v-9.823
		C54.625,10.719,53.958,10.056,53.138,10.056z M8.654,6.521c0-2.088,1.639-3.78,3.656-3.78h31.344c2.021,0,3.655,1.692,3.655,3.78
		v30.575c0,2.087-1.635,3.781-3.655,3.781H12.311c-2.018,0-3.656-1.694-3.656-3.781V6.521z"/>
	<path fill="#2AC4F3" d="M19.492,8.226h17.241c0.792,0,1.436-0.643,1.436-1.436c0-0.792-0.645-1.436-1.436-1.436H19.492
		c-0.792,0-1.436,0.645-1.436,1.436C18.057,7.583,18.701,8.226,19.492,8.226z"/>
	<path fill="#2AC4F3" d="M43.219,35.364c-1.059,0-1.916,0.854-1.916,1.915c0,1.058,0.857,1.916,1.916,1.916
		c1.058,0,1.916-0.858,1.916-1.916C45.135,36.218,44.276,35.364,43.219,35.364z"/>
	<path fill="#2AC4F3" d="M12.66,39.195c1.059,0,1.916-0.858,1.916-1.916c0-1.062-0.857-1.915-1.916-1.915
		c-1.057,0-1.916,0.854-1.916,1.915C10.744,38.337,11.603,39.195,12.66,39.195z"/>
	<path fill="#2AC4F3" d="M35.21,34.069l-1.087,0.725c0.05,0.079,0.113,0.169,0.185,0.27c-0.964,0.866-1.822,1.252-3.243,1.514
		c-2.699,0.492-7.254-0.632-7.299-0.644l-0.315,1.264c0.16,0.042,3.264,0.809,6.018,0.809c0.644,0,1.268-0.043,1.831-0.145
		c1.629-0.297,2.703-0.784,3.832-1.783c0.326,0.343,0.681,0.632,1.009,0.726l0.366-1.255C36.284,35.461,35.668,34.755,35.21,34.069z
		"/>
</g>
</svg>
