<?xml version="1.0" encoding="utf-8"?>
<!-- Generator: Adobe Illustrator 15.0.0, SVG Export Plug-In . SVG Version: 6.00 Build 0)  -->
<!DOCTYPE svg PUBLIC "-//W3C//DTD SVG 1.0//EN" "http://www.w3.org/TR/2001/REC-SVG-20010904/DTD/svg10.dtd">
<svg version="1.0" id="Layer_1" xmlns="http://www.w3.org/2000/svg" xmlns:xlink="http://www.w3.org/1999/xlink" x="0px" y="0px"
	 width="118.904px" height="30.25px" viewBox="0 0 118.904 30.25" enable-background="new 0 0 118.904 30.25" xml:space="preserve">
<polygon fill="#00BDDE" points="1.362,7.218 11.797,7.218 1.362,22.749 1.362,27.893 19.709,27.893 19.709,22.458 9.275,22.458 
	19.709,6.926 19.709,1.781 1.362,1.781 "/>
<path fill="#00BDDE" d="M39.26,4.717C38.548,3.57,37.57,2.68,36.325,2.048c-1.246-0.631-2.841-0.945-4.781-0.945
	c-2.265,0-4.078,0.372-5.438,1.116c-1.357,0.743-2.401,1.746-3.131,3.009C22.249,6.49,21.766,7.93,21.52,9.547
	c-0.242,1.618-0.363,3.303-0.363,5.049c0,1.65,0.073,3.301,0.217,4.95c0.146,1.651,0.541,3.14,1.189,4.465
	c0.646,1.327,1.648,2.396,3.009,3.205c1.359,0.806,3.253,1.212,5.678,1.212c3.203,0,5.548-0.796,7.039-2.38
	c1.488-1.585,2.296-3.897,2.428-6.938h-6.019c-0.193,1.649-0.55,2.883-1.066,3.689c-0.52,0.809-1.345,1.213-2.477,1.213
	c-0.615,0-1.132-0.172-1.554-0.512c-0.422-0.337-0.761-0.792-1.021-1.357s-0.445-1.213-0.556-1.942
	c-0.115-0.729-0.171-1.479-0.171-2.257v-2.088h13.25V14.35c0-2.002-0.129-3.824-0.388-5.458C40.458,7.256,39.973,5.868,39.26,4.717z
	 M27.855,11.877v-1.021c0-0.612,0.056-1.229,0.17-1.841c0.111-0.616,0.297-1.173,0.556-1.675c0.26-0.502,0.609-0.907,1.043-1.214
	c0.438-0.307,0.995-0.46,1.676-0.46c0.679,0,1.236,0.136,1.674,0.412c0.438,0.276,0.776,0.681,1.021,1.213
	c0.243,0.534,0.413,1.182,0.511,1.944c0.098,0.758,0.161,1.64,0.193,2.643H27.855L27.855,11.877L27.855,11.877z"/>
<path fill="#00BDDE" d="M60.89,4.717c-0.709-1.147-1.688-2.037-2.934-2.669c-1.246-0.631-2.842-0.945-4.782-0.945
	c-2.262,0-4.076,0.372-5.436,1.116c-1.359,0.743-2.403,1.746-3.131,3.009c-0.726,1.262-1.211,2.702-1.455,4.319
	c-0.242,1.618-0.363,3.303-0.363,5.049c0,1.65,0.071,3.301,0.217,4.95c0.146,1.651,0.541,3.14,1.188,4.465
	c0.646,1.327,1.648,2.396,3.009,3.205c1.358,0.806,3.253,1.212,5.678,1.212c3.204,0,5.552-0.796,7.039-2.38
	c1.488-1.585,2.296-3.897,2.427-6.938H56.33c-0.192,1.649-0.551,2.883-1.068,3.689c-0.519,0.809-1.343,1.213-2.476,1.213
	c-0.615,0-1.134-0.172-1.553-0.512c-0.421-0.337-0.76-0.792-1.02-1.357c-0.261-0.565-0.445-1.213-0.558-1.942
	s-0.172-1.479-0.172-2.257v-2.088h13.253V14.35c0-2.002-0.132-3.824-0.391-5.458C62.089,7.256,61.606,5.868,60.89,4.717z
	 M49.486,11.877v-1.021c0-0.612,0.06-1.229,0.171-1.841c0.112-0.616,0.298-1.173,0.559-1.675c0.259-0.502,0.605-0.907,1.043-1.214
	c0.435-0.307,0.995-0.46,1.674-0.46c0.681,0,1.236,0.136,1.675,0.412c0.435,0.276,0.775,0.681,1.021,1.213
	c0.24,0.534,0.411,1.182,0.51,1.944c0.098,0.758,0.162,1.64,0.192,2.643H49.486L49.486,11.877L49.486,11.877z"/>
<path fill="#00BDDE" d="M95.445,16.145c-0.267-2.268-0.325-4.326-0.171-6.116c0.148-1.679,0.541-3.149,1.148-4.404
	c-0.266-0.99-0.66-1.827-1.194-2.51c-1.054-1.343-2.694-2.013-4.925-2.013c-1.589,0-2.958,0.347-4.107,1.042
	c-1.146,0.695-1.98,1.741-2.496,3.131h-0.099c-0.354-1.357-1.062-2.394-2.11-3.107c-1.052-0.71-2.354-1.065-3.908-1.065
	c-1.456,0-2.713,0.257-3.762,0.777c-1.05,0.517-1.996,1.376-2.84,2.572h-0.098V1.781h-6.405v26.111h6.697v-17.18
	c0-1.554,0.316-2.685,0.946-3.398c0.632-0.711,1.482-1.067,2.549-1.067c0.938,0,1.611,0.291,2.015,0.871
	c0.403,0.584,0.605,1.426,0.605,2.527v18.249h6.7V10.713c0-1.554,0.312-2.685,0.945-3.398c0.633-0.711,1.479-1.067,2.548-1.067
	c0.94,0,1.611,0.291,2.014,0.871c0.406,0.584,0.607,1.426,0.607,2.527v18.249h6.699v-5.307c-0.047-0.135-0.103-0.257-0.143-0.396
	C96.125,20.471,95.715,18.438,95.445,16.145z"/>
<circle fill="#95BC3D" cx="106.805" cy="9.851" r="1.366"/>
<path fill="#95BC3D" d="M117.625,13.639c-0.234-1.963-0.57-3.682-0.994-5.187l-3.876,0.46l2.219-4.328
	c-0.219-0.333-0.446-0.651-0.696-0.941c-0.912-1.062-2.057-1.795-3.438-2.198c-1.386-0.404-3.069-0.47-5.055-0.199
	c-1.895,0.227-3.449,0.717-4.683,1.466c-1.227,0.75-2.171,1.742-2.837,2.978c-0.664,1.235-1.071,2.723-1.221,4.466
	c-0.148,1.742-0.09,3.719,0.175,5.935c0.27,2.245,0.672,4.208,1.198,5.886c0.523,1.678,1.242,3.039,2.151,4.084
	c0.902,1.049,2.048,1.754,3.427,2.127c1.378,0.371,3.061,0.42,5.045,0.146c1.896-0.227,3.458-0.689,4.69-1.391
	c1.231-0.702,2.185-1.672,2.844-2.906c0.671-1.234,1.077-2.725,1.225-4.465C117.95,17.832,117.891,15.854,117.625,13.639z
	 M111.056,21.506c-0.35,1.475-1.191,2.292-2.54,2.453c-0.802,0.098-1.472-0.049-2.004-0.441c-0.535-0.391-0.97-0.97-1.312-1.744
	c-0.335-0.772-0.604-1.719-0.803-2.834c-0.2-1.116-0.377-2.33-0.536-3.646c-0.156-1.315-0.272-2.537-0.345-3.668
	c-0.069-1.13-0.033-2.111,0.11-2.942c0.145-0.831,0.431-1.499,0.856-2.007c0.431-0.506,1.043-0.807,1.845-0.904
	c1.35-0.161,2.362,0.433,3.043,1.782c0.687,1.351,1.222,3.646,1.611,6.884C111.374,17.68,111.398,20.036,111.056,21.506z"/>
</svg>
